<?xml version="1.0" encoding="us-ascii" standalone="no"?><svg xmlns="http://www.w3.org/2000/svg" xmlns:xlink="http://www.w3.org/1999/xlink" contentStyleType="text/css" height="468px" preserveAspectRatio="none" style="width:339px;height:468px;background:#FFFFFF;" version="1.1" viewBox="0 0 339 468" width="339px" zoomAndPan="magnify"><defs/><g><!--cluster Database Schema--><g id="cluster_Database Schema"><path d="M8.5,6 L149.5,6 A3.75,3.75 0 0 1 152,8.5 L159,28.2969 L329.5,28.2969 A2.5,2.5 0 0 1 332,30.7969 L332,458.5 A2.5,2.5 0 0 1 329.5,461 L8.5,461 A2.5,2.5 0 0 1 6,458.5 L6,8.5 A2.5,2.5 0 0 1 8.5,6 " fill="none" style="stroke:#000000;stroke-width:1.5;"/><line style="stroke:#000000;stroke-width:1.5;" x1="6" x2="159" y1="28.2969" y2="28.2969"/><text fill="#000000" font-family="sans-serif" font-size="14" font-weight="bold" lengthAdjust="spacing" textLength="140" x="10" y="20.9951">Database Schema</text></g><!--class Customers--><g id="elem_Customers"><rect codeLine="15" fill="#F1F1F1" height="56.2969" id="Customers" rx="2.5" ry="2.5" style="stroke:#181818;stroke-width:0.5;" width="134" x="168" y="41"/><ellipse cx="194.7" cy="57" fill="#FFAAAA" rx="11" ry="11" style="stroke:#181818;stroke-width:1.0;"/><path d="M195.5438,63.75 L193.0906,63.75 L193.0906,53.5 L189.95,53.5 L189.95,51.3594 L198.6844,51.3594 L198.6844,53.5 L195.5438,53.5 L195.5438,63.75 Z " fill="#000000"/><text fill="#000000" font-family="sans-serif" font-size="14" lengthAdjust="spacing" textLength="76" x="211.3" y="61.8467">Customers</text><line style="stroke:#181818;stroke-width:0.5;" x1="169" x2="301" y1="73" y2="73"/><text fill="#000000" font-family="sans-serif" font-size="14" font-weight="bold" lengthAdjust="spacing" textLength="96" x="174" y="89.9951">customer_id</text><text fill="#000000" font-family="sans-serif" font-size="14" lengthAdjust="spacing" textLength="22" x="274" y="89.9951">INT</text></g><!--class Products--><g id="elem_Products"><rect codeLine="25" fill="#F1F1F1" height="72.5938" id="Products" rx="2.5" ry="2.5" style="stroke:#181818;stroke-width:0.5;" width="129" x="22.5" y="182"/><ellipse cx="53.25" cy="198" fill="#FFAAAA" rx="11" ry="11" style="stroke:#181818;stroke-width:1.0;"/><path d="M54.0938,204.75 L51.6406,204.75 L51.6406,194.5 L48.5,194.5 L48.5,192.3594 L57.2344,192.3594 L57.2344,194.5 L54.0938,194.5 L54.0938,204.75 Z " fill="#000000"/><text fill="#000000" font-family="sans-serif" font-size="14" lengthAdjust="spacing" textLength="62" x="70.75" y="202.8467">Products</text><line style="stroke:#181818;stroke-width:0.5;" x1="23.5" x2="150.5" y1="214" y2="214"/><text fill="#000000" font-family="sans-serif" font-size="14" font-weight="bold" lengthAdjust="spacing" textLength="83" x="28.5" y="230.9951">product_id</text><text fill="#000000" font-family="sans-serif" font-size="14" lengthAdjust="spacing" textLength="22" x="115.5" y="230.9951">INT</text><text fill="#000000" font-family="sans-serif" font-size="14" lengthAdjust="spacing" textLength="117" x="28.5" y="247.292">description TEXT</text></g><!--class Orders--><g id="elem_Orders"><rect codeLine="32" fill="#F1F1F1" height="88.8906" id="Orders" rx="2.5" ry="2.5" style="stroke:#181818;stroke-width:0.5;" width="129" x="186.5" y="174"/><ellipse cx="224" cy="190" fill="#FFAAAA" rx="11" ry="11" style="stroke:#181818;stroke-width:1.0;"/><path d="M224.8438,196.75 L222.3906,196.75 L222.3906,186.5 L219.25,186.5 L219.25,184.3594 L227.9844,184.3594 L227.9844,186.5 L224.8438,186.5 L224.8438,196.75 Z " fill="#000000"/><text fill="#000000" font-family="sans-serif" font-size="14" lengthAdjust="spacing" textLength="47" x="243" y="194.8467">Orders</text><line style="stroke:#181818;stroke-width:0.5;" x1="187.5" x2="314.5" y1="206" y2="206"/><text fill="#000000" font-family="sans-serif" font-size="14" font-weight="bold" lengthAdjust="spacing" textLength="65" x="192.5" y="222.9951">order_id</text><text fill="#000000" font-family="sans-serif" font-size="14" lengthAdjust="spacing" textLength="22" x="261.5" y="222.9951">INT</text><text fill="#000000" font-family="sans-serif" font-size="14" lengthAdjust="spacing" text-decoration="underline" textLength="85" x="192.5" y="239.292">customer_id</text><text fill="#000000" font-family="sans-serif" font-size="14" lengthAdjust="spacing" textLength="22" x="281.5" y="239.292">INT</text><text fill="#000000" font-family="sans-serif" font-size="14" lengthAdjust="spacing" textLength="117" x="192.5" y="255.5889">order_date DATE</text></g><!--class OrderItems--><g id="elem_OrderItems"><rect codeLine="39" fill="#F1F1F1" height="105.1875" id="OrderItems" rx="2.5" ry="2.5" style="stroke:#181818;stroke-width:0.5;" width="144" x="86" y="340"/><ellipse cx="116.75" cy="356" fill="#FFAAAA" rx="11" ry="11" style="stroke:#181818;stroke-width:1.0;"/><path d="M117.5938,362.75 L115.1406,362.75 L115.1406,352.5 L112,352.5 L112,350.3594 L120.7344,350.3594 L120.7344,352.5 L117.5938,352.5 L117.5938,362.75 Z " fill="#000000"/><text fill="#000000" font-family="sans-serif" font-size="14" lengthAdjust="spacing" textLength="77" x="134.25" y="360.8467">OrderItems</text><line style="stroke:#181818;stroke-width:0.5;" x1="87" x2="229" y1="372" y2="372"/><text fill="#000000" font-family="sans-serif" font-size="14" font-weight="bold" lengthAdjust="spacing" textLength="106" x="92" y="388.9951">order_item_id</text><text fill="#000000" font-family="sans-serif" font-size="14" lengthAdjust="spacing" textLength="22" x="202" y="388.9951">INT</text><text fill="#000000" font-family="sans-serif" font-size="14" lengthAdjust="spacing" text-decoration="underline" textLength="56" x="92" y="405.292">order_id</text><text fill="#000000" font-family="sans-serif" font-size="14" lengthAdjust="spacing" textLength="22" x="152" y="405.292">INT</text><text fill="#000000" font-family="sans-serif" font-size="14" lengthAdjust="spacing" text-decoration="underline" textLength="73" x="92" y="421.5889">product_id</text><text fill="#000000" font-family="sans-serif" font-size="14" lengthAdjust="spacing" textLength="22" x="169" y="421.5889">INT</text><text fill="#000000" font-family="sans-serif" font-size="14" lengthAdjust="spacing" textLength="81" x="92" y="437.8857">quantity INT</text></g><!--link Customers to Orders--><g id="link_Customers_Orders"><path codeLine="46" d="M237.97,97.4 C240.29,118.81 243.57,148.99 246.25,173.73 " fill="none" id="Customers-Orders" style="stroke:#181818;stroke-width:1.0;"/><text fill="#000000" font-family="sans-serif" font-size="13" lengthAdjust="spacing" text-decoration="underline" textLength="79" x="244" y="140.0669">customer_id</text><text fill="#000000" font-family="sans-serif" font-size="13" lengthAdjust="spacing" textLength="8" x="229.7447" y="117.3021">1</text><text fill="#000000" font-family="sans-serif" font-size="13" lengthAdjust="spacing" textLength="10" x="234.757" y="162.8116">N</text></g><!--link Orders to OrderItems--><g id="link_Orders_OrderItems"><path codeLine="47" d="M227.29,263.35 C214.7,286.64 199.14,315.41 185.96,339.78 " fill="none" id="Orders-OrderItems" style="stroke:#181818;stroke-width:1.0;"/><text fill="#000000" font-family="sans-serif" font-size="13" lengthAdjust="spacing" text-decoration="underline" textLength="52" x="211" y="306.0669">order_id</text><text fill="#000000" font-family="sans-serif" font-size="13" lengthAdjust="spacing" textLength="8" x="215.3933" y="282.7956">1</text><text fill="#000000" font-family="sans-serif" font-size="13" lengthAdjust="spacing" textLength="10" x="179.0453" y="328.7512">N</text></g><!--link Products to OrderItems--><g id="link_Products_OrderItems"><path codeLine="48" d="M101.71,255.14 C111.78,279.54 125.31,312.3 136.57,339.59 " fill="none" id="Products-OrderItems" style="stroke:#181818;stroke-width:1.0;"/><text fill="#000000" font-family="sans-serif" font-size="13" lengthAdjust="spacing" text-decoration="underline" textLength="67" x="123" y="306.0669">product_id</text><text fill="#000000" font-family="sans-serif" font-size="13" lengthAdjust="spacing" textLength="8" x="95.4838" y="274.5622">1</text><text fill="#000000" font-family="sans-serif" font-size="13" lengthAdjust="spacing" textLength="10" x="123.1837" y="328.9134">N</text></g><!--SRC=[ZP9BJyCm48Jl_XLBk3HIAmf7L5KAfHKHKAes86x8iHTgqSJ1taWjYF-E4mVwe3nyo-V9pkma1n8VLOwGH6TNmzOo1B7Wri8IUZre9Ut3qIXo9uH-dnqqqibbfUkb_MNlA5tZaSTbXSi-OtCb4JAakPRMFrX2WvfM1Lh6xBFA2svuvXqZ8gFIaZ0MEf-fLuGkOmKNp_m98JZdn5Dk4MPYZXaFu8qnQ38FIaiwGsD3Hy4Tbqyqx4794E9nKlESPmXtqNHm4KrRnzrkM5CtJYs-usAkyxNwfA5SIeEkdZLlBeIYrVSXbZXj3AdW-phun6XP2jhCNNZqZzWIhJ2g8ALpI8RtNbeO9H36jzV3QJnmsZRiUjuOkTsKhi2Mt-Y7-hnILXkTHycmPgI9BnvufikS_lQD2RCztexk1jYRQbyvBoNFgUhUWzhnwuU0u3Y0JWU2SG1-SJZTNS_fcwjTSPtMl_0Lnwa_lzfl-esax9rz0000]--></g></svg>