<?xml version="1.0" encoding="us-ascii" standalone="no"?><svg xmlns="http://www.w3.org/2000/svg" xmlns:xlink="http://www.w3.org/1999/xlink" contentStyleType="text/css" height="1642px" preserveAspectRatio="none" style="width:3771px;height:1642px;" version="1.1" viewBox="0 0 3771 1642" width="3771px" zoomAndPan="magnify"><defs/><g><!--cluster ubuntu--><g id="cluster_ubuntu"><polygon fill="none" points="16,16,26,6,991,6,991,602.8,981,612.8,16,612.8,16,16" style="stroke:#E7E7E7;stroke-width:1.0;"/><line style="stroke:#E7E7E7;stroke-width:1.0;" x1="981" x2="991" y1="16" y2="6"/><line style="stroke:#E7E7E7;stroke-width:1.0;" x1="16" x2="981" y1="16" y2="16"/><line style="stroke:#E7E7E7;stroke-width:1.0;" x1="981" x2="981" y1="16" y2="612.8"/><text fill="#FFFFFF" font-family="sans-serif" font-size="14" font-weight="bold" lengthAdjust="spacing" textLength="209" x="395" y="31.9951">ubuntu cloud top San Fran</text></g><!--cluster azure--><g id="cluster_azure"><path d="M58.5,133.72 L152.5,133.72 A3.75,3.75 0 0 1 155,136.22 L162,156.0169 L948.5,156.0169 A2.5,2.5 0 0 1 951,158.5169 L951,570.3 A2.5,2.5 0 0 1 948.5,572.8 L58.5,572.8 A2.5,2.5 0 0 1 56,570.3 L56,136.22 A2.5,2.5 0 0 1 58.5,133.72 " fill="none" style="stroke:#FFFFFF;stroke-width:1.5;"/><line style="stroke:#FFFFFF;stroke-width:1.5;" x1="56" x2="162" y1="156.0169" y2="156.0169"/><text fill="#FFFFFF" font-family="sans-serif" font-size="14" font-weight="bold" lengthAdjust="spacing" textLength="93" x="60" y="148.7151">azure cloud</text></g><!--cluster n3sad--><g id="cluster_n3sad"><polygon fill="none" points="543,299.08,553,289.08,911,289.08,911,522.8,901,532.8,543,532.8,543,299.08" style="stroke:#E7E7E7;stroke-width:1.0;"/><line style="stroke:#E7E7E7;stroke-width:1.0;" x1="901" x2="911" y1="299.08" y2="289.08"/><line style="stroke:#E7E7E7;stroke-width:1.0;" x1="543" x2="901" y1="299.08" y2="299.08"/><line style="stroke:#E7E7E7;stroke-width:1.0;" x1="901" x2="901" y1="299.08" y2="532.8"/><text fill="#FFFFFF" font-family="sans-serif" font-size="14" font-weight="bold" lengthAdjust="spacing" textLength="48" x="699" y="315.0751">n3sad</text></g><!--cluster devnet--><g id="cluster_devnet"><polygon fill="none" points="1031,299.08,1041,289.08,1501,289.08,1501,811.16,1491,821.16,1031,821.16,1031,299.08" style="stroke:#E7E7E7;stroke-width:1.0;"/><line style="stroke:#E7E7E7;stroke-width:1.0;" x1="1491" x2="1501" y1="299.08" y2="289.08"/><line style="stroke:#E7E7E7;stroke-width:1.0;" x1="1031" x2="1491" y1="299.08" y2="299.08"/><line style="stroke:#E7E7E7;stroke-width:1.0;" x1="1491" x2="1491" y1="299.08" y2="821.16"/><text fill="#FFFFFF" font-family="sans-serif" font-size="14" font-weight="bold" lengthAdjust="spacing" textLength="55" x="1234.5" y="315.0751">devnet</text></g><!--cluster devcloud--><g id="cluster_devcloud"><path d="M1073.5,439.44 L1177.5,439.44 A3.75,3.75 0 0 1 1180,441.94 L1187,461.7369 L1458.5,461.7369 A2.5,2.5 0 0 1 1461,464.2369 L1461,778.66 A2.5,2.5 0 0 1 1458.5,781.16 L1073.5,781.16 A2.5,2.5 0 0 1 1071,778.66 L1071,441.94 A2.5,2.5 0 0 1 1073.5,439.44 " fill="none" style="stroke:#FFFFFF;stroke-width:1.5;"/><line style="stroke:#FFFFFF;stroke-width:1.5;" x1="1071" x2="1187" y1="461.7369" y2="461.7369"/><text fill="#FFFFFF" font-family="sans-serif" font-size="14" font-weight="bold" lengthAdjust="spacing" textLength="103" x="1075" y="454.4351">devnet cloud</text></g><!--cluster labnet--><g id="cluster_labnet"><polygon fill="none" points="1541,299.08,1551,289.08,3528,289.08,3528,1615.16,3518,1625.16,1541,1625.16,1541,299.08" style="stroke:#E7E7E7;stroke-width:1.0;"/><line style="stroke:#E7E7E7;stroke-width:1.0;" x1="3518" x2="3528" y1="299.08" y2="289.08"/><line style="stroke:#E7E7E7;stroke-width:1.0;" x1="1541" x2="3518" y1="299.08" y2="299.08"/><line style="stroke:#E7E7E7;stroke-width:1.0;" x1="3518" x2="3518" y1="299.08" y2="1625.16"/><text fill="#FFFFFF" font-family="sans-serif" font-size="14" font-weight="bold" lengthAdjust="spacing" textLength="67" x="2497" y="315.0751">homelab</text></g><!--cluster n3slab--><g id="cluster_n3slab"><path d="M1583.5,439.44 L1636.5,439.44 A3.75,3.75 0 0 1 1639,441.94 L1646,461.7369 L3485.5,461.7369 A2.5,2.5 0 0 1 3488,464.2369 L3488,1582.66 A2.5,2.5 0 0 1 3485.5,1585.16 L1583.5,1585.16 A2.5,2.5 0 0 1 1581,1582.66 L1581,441.94 A2.5,2.5 0 0 1 1583.5,439.44 " fill="none" style="stroke:#FFFFFF;stroke-width:1.5;"/><line style="stroke:#FFFFFF;stroke-width:1.5;" x1="1581" x2="1646" y1="461.7369" y2="461.7369"/><text fill="#FFFFFF" font-family="sans-serif" font-size="14" font-weight="bold" lengthAdjust="spacing" textLength="52" x="1585" y="454.4351">n3slab</text></g><!--cluster palo_alto--><g id="cluster_palo_alto"><polygon fill="none" points="2223,687.8,2233,677.8,3448,677.8,3448,1535.16,3438,1545.16,2223,1545.16,2223,687.8" style="stroke:#E7E7E7;stroke-width:1.0;"/><line style="stroke:#E7E7E7;stroke-width:1.0;" x1="3438" x2="3448" y1="687.8" y2="677.8"/><line style="stroke:#E7E7E7;stroke-width:1.0;" x1="2223" x2="3438" y1="687.8" y2="687.8"/><line style="stroke:#E7E7E7;stroke-width:1.0;" x1="3438" x2="3438" y1="687.8" y2="1545.16"/><text fill="#FFFFFF" font-family="sans-serif" font-size="14" font-weight="bold" lengthAdjust="spacing" textLength="102" x="2780.5" y="703.7951">palo alto 500</text></g><!--cluster avaya_switch--><g id="cluster_avaya_switch"><polygon fill="none" points="3025,950.8,3035,940.8,3408,940.8,3408,1156.16,3398,1166.16,3025,1166.16,3025,950.8" style="stroke:#E7E7E7;stroke-width:1.0;"/><line style="stroke:#E7E7E7;stroke-width:1.0;" x1="3398" x2="3408" y1="950.8" y2="940.8"/><line style="stroke:#E7E7E7;stroke-width:1.0;" x1="3025" x2="3398" y1="950.8" y2="950.8"/><line style="stroke:#E7E7E7;stroke-width:1.0;" x1="3398" x2="3398" y1="950.8" y2="1166.16"/><text fill="#FFFFFF" font-family="sans-serif" font-size="14" font-weight="bold" lengthAdjust="spacing" textLength="115" x="3155" y="966.7951">avaya 48p poe</text></g><!--cluster decanode--><g id="cluster_decanode"><polygon fill="none" points="2263,912.16,2273,902.16,2985,902.16,2985,1495.16,2975,1505.16,2263,1505.16,2263,912.16" style="stroke:#E7E7E7;stroke-width:1.0;"/><line style="stroke:#E7E7E7;stroke-width:1.0;" x1="2975" x2="2985" y1="912.16" y2="902.16"/><line style="stroke:#E7E7E7;stroke-width:1.0;" x1="2263" x2="2975" y1="912.16" y2="912.16"/><line style="stroke:#E7E7E7;stroke-width:1.0;" x1="2975" x2="2975" y1="912.16" y2="1505.16"/><text fill="#FFFFFF" font-family="sans-serif" font-size="14" font-weight="bold" lengthAdjust="spacing" textLength="221" x="2509.5" y="928.1551">octopi 4GB arm clusternode</text></g><!--entity n3sdb--><g id="elem_n3sdb"><polygon fill="#0E0E0E" points="80,332.44,90,322.44,164,322.44,164,358.7369,154,368.7369,80,368.7369,80,332.44" style="stroke:#E7E7E7;stroke-width:0.5;"/><line style="stroke:#E7E7E7;stroke-width:0.5;" x1="154" x2="164" y1="332.44" y2="322.44"/><line style="stroke:#E7E7E7;stroke-width:0.5;" x1="80" x2="154" y1="332.44" y2="332.44"/><line style="stroke:#E7E7E7;stroke-width:0.5;" x1="154" x2="154" y1="332.44" y2="368.7369"/><text fill="#FFFFFF" font-family="sans-serif" font-size="14" lengthAdjust="spacing" textLength="44" x="95" y="355.4351">n3sdb</text></g><!--entity n3sgw--><g id="elem_n3sgw"><polygon fill="#0E0E0E" points="199,332.44,209,322.44,285,322.44,285,358.7369,275,368.7369,199,368.7369,199,332.44" style="stroke:#E7E7E7;stroke-width:0.5;"/><line style="stroke:#E7E7E7;stroke-width:0.5;" x1="275" x2="285" y1="332.44" y2="322.44"/><line style="stroke:#E7E7E7;stroke-width:0.5;" x1="199" x2="275" y1="332.44" y2="332.44"/><line style="stroke:#E7E7E7;stroke-width:0.5;" x1="275" x2="275" y1="332.44" y2="368.7369"/><text fill="#FFFFFF" font-family="sans-serif" font-size="14" lengthAdjust="spacing" textLength="46" x="214" y="355.4351">n3sgw</text></g><!--entity n3sfw--><g id="elem_n3sfw"><polygon fill="#0E0E0E" points="320.5,332.44,330.5,322.44,401.5,322.44,401.5,358.7369,391.5,368.7369,320.5,368.7369,320.5,332.44" style="stroke:#E7E7E7;stroke-width:0.5;"/><line style="stroke:#E7E7E7;stroke-width:0.5;" x1="391.5" x2="401.5" y1="332.44" y2="322.44"/><line style="stroke:#E7E7E7;stroke-width:0.5;" x1="320.5" x2="391.5" y1="332.44" y2="332.44"/><line style="stroke:#E7E7E7;stroke-width:0.5;" x1="391.5" x2="391.5" y1="332.44" y2="368.7369"/><text fill="#FFFFFF" font-family="sans-serif" font-size="14" lengthAdjust="spacing" textLength="41" x="335.5" y="355.4351">n3sfw</text></g><!--entity n3sas--><g id="elem_n3sas"><polygon fill="#0E0E0E" points="437,332.44,447,322.44,519,322.44,519,358.7369,509,368.7369,437,368.7369,437,332.44" style="stroke:#E7E7E7;stroke-width:0.5;"/><line style="stroke:#E7E7E7;stroke-width:0.5;" x1="509" x2="519" y1="332.44" y2="322.44"/><line style="stroke:#E7E7E7;stroke-width:0.5;" x1="437" x2="509" y1="332.44" y2="332.44"/><line style="stroke:#E7E7E7;stroke-width:0.5;" x1="509" x2="509" y1="332.44" y2="368.7369"/><text fill="#FFFFFF" font-family="sans-serif" font-size="14" lengthAdjust="spacing" textLength="42" x="452" y="355.4351">n3sas</text></g><!--entity opspc--><g id="elem_opspc"><polygon fill="#0E0E0E" points="567.5,472.8,577.5,462.8,650.5,462.8,650.5,499.0969,640.5,509.0969,567.5,509.0969,567.5,472.8" style="stroke:#E7E7E7;stroke-width:0.5;"/><line style="stroke:#E7E7E7;stroke-width:0.5;" x1="640.5" x2="650.5" y1="472.8" y2="462.8"/><line style="stroke:#E7E7E7;stroke-width:0.5;" x1="567.5" x2="640.5" y1="472.8" y2="472.8"/><line style="stroke:#E7E7E7;stroke-width:0.5;" x1="640.5" x2="640.5" y1="472.8" y2="509.0969"/><text fill="#FFFFFF" font-family="sans-serif" font-size="14" lengthAdjust="spacing" textLength="43" x="582.5" y="495.7951">opspc</text></g><!--entity devpc--><g id="elem_devpc"><polygon fill="#0E0E0E" points="686,472.8,696,462.8,768,462.8,768,499.0969,758,509.0969,686,509.0969,686,472.8" style="stroke:#E7E7E7;stroke-width:0.5;"/><line style="stroke:#E7E7E7;stroke-width:0.5;" x1="758" x2="768" y1="472.8" y2="462.8"/><line style="stroke:#E7E7E7;stroke-width:0.5;" x1="686" x2="758" y1="472.8" y2="472.8"/><line style="stroke:#E7E7E7;stroke-width:0.5;" x1="758" x2="758" y1="472.8" y2="509.0969"/><text fill="#FFFFFF" font-family="sans-serif" font-size="14" lengthAdjust="spacing" textLength="42" x="701" y="495.7951">devpc</text></g><!--entity suppc--><g id="elem_suppc"><polygon fill="#0E0E0E" points="803.5,472.8,813.5,462.8,886.5,462.8,886.5,499.0969,876.5,509.0969,803.5,509.0969,803.5,472.8" style="stroke:#E7E7E7;stroke-width:0.5;"/><line style="stroke:#E7E7E7;stroke-width:0.5;" x1="876.5" x2="886.5" y1="472.8" y2="462.8"/><line style="stroke:#E7E7E7;stroke-width:0.5;" x1="803.5" x2="876.5" y1="472.8" y2="472.8"/><line style="stroke:#E7E7E7;stroke-width:0.5;" x1="876.5" x2="876.5" y1="472.8" y2="509.0969"/><text fill="#FFFFFF" font-family="sans-serif" font-size="14" lengthAdjust="spacing" textLength="43" x="818.5" y="495.7951">suppc</text></g><!--entity devubn--><g id="elem_devubn"><polygon fill="#0E0E0E" points="1095,721.16,1105,711.16,1187,711.16,1187,747.4569,1177,757.4569,1095,757.4569,1095,721.16" style="stroke:#E7E7E7;stroke-width:0.5;"/><line style="stroke:#E7E7E7;stroke-width:0.5;" x1="1177" x2="1187" y1="721.16" y2="711.16"/><line style="stroke:#E7E7E7;stroke-width:0.5;" x1="1095" x2="1177" y1="721.16" y2="721.16"/><line style="stroke:#E7E7E7;stroke-width:0.5;" x1="1177" x2="1177" y1="721.16" y2="757.4569"/><text fill="#FFFFFF" font-family="sans-serif" font-size="14" lengthAdjust="spacing" textLength="52" x="1110" y="744.1551">devubn</text></g><!--entity devfbd--><g id="elem_devfbd"><polygon fill="#0E0E0E" points="1222.5,721.16,1232.5,711.16,1309.5,711.16,1309.5,747.4569,1299.5,757.4569,1222.5,757.4569,1222.5,721.16" style="stroke:#E7E7E7;stroke-width:0.5;"/><line style="stroke:#E7E7E7;stroke-width:0.5;" x1="1299.5" x2="1309.5" y1="721.16" y2="711.16"/><line style="stroke:#E7E7E7;stroke-width:0.5;" x1="1222.5" x2="1299.5" y1="721.16" y2="721.16"/><line style="stroke:#E7E7E7;stroke-width:0.5;" x1="1299.5" x2="1299.5" y1="721.16" y2="757.4569"/><text fill="#FFFFFF" font-family="sans-serif" font-size="14" lengthAdjust="spacing" textLength="47" x="1237.5" y="744.1551">devfbd</text></g><!--entity devobd--><g id="elem_devobd"><polygon fill="#0E0E0E" points="1345,721.16,1355,711.16,1437,711.16,1437,747.4569,1427,757.4569,1345,757.4569,1345,721.16" style="stroke:#E7E7E7;stroke-width:0.5;"/><line style="stroke:#E7E7E7;stroke-width:0.5;" x1="1427" x2="1437" y1="721.16" y2="711.16"/><line style="stroke:#E7E7E7;stroke-width:0.5;" x1="1345" x2="1427" y1="721.16" y2="721.16"/><line style="stroke:#E7E7E7;stroke-width:0.5;" x1="1427" x2="1427" y1="721.16" y2="757.4569"/><text fill="#FFFFFF" font-family="sans-serif" font-size="14" lengthAdjust="spacing" textLength="52" x="1360" y="744.1551">devobd</text></g><!--entity nighthawk cable modem--><g id="elem_nighthawk cable modem"><polygon fill="#0E0E0E" points="1605.5,721.16,1615.5,711.16,1814.5,711.16,1814.5,747.4569,1804.5,757.4569,1605.5,757.4569,1605.5,721.16" style="stroke:#E7E7E7;stroke-width:0.5;"/><line style="stroke:#E7E7E7;stroke-width:0.5;" x1="1804.5" x2="1814.5" y1="721.16" y2="711.16"/><line style="stroke:#E7E7E7;stroke-width:0.5;" x1="1605.5" x2="1804.5" y1="721.16" y2="721.16"/><line style="stroke:#E7E7E7;stroke-width:0.5;" x1="1804.5" x2="1804.5" y1="721.16" y2="757.4569"/><text fill="#FFFFFF" font-family="sans-serif" font-size="14" lengthAdjust="spacing" textLength="169" x="1620.5" y="744.1551">nighthawk cable modem</text></g><!--entity Cisco 1941--><g id="elem_Cisco 1941"><polygon fill="#0E0E0E" points="1850,721.16,1860,711.16,1968,711.16,1968,747.4569,1958,757.4569,1850,757.4569,1850,721.16" style="stroke:#E7E7E7;stroke-width:0.5;"/><line style="stroke:#E7E7E7;stroke-width:0.5;" x1="1958" x2="1968" y1="721.16" y2="711.16"/><line style="stroke:#E7E7E7;stroke-width:0.5;" x1="1850" x2="1958" y1="721.16" y2="721.16"/><line style="stroke:#E7E7E7;stroke-width:0.5;" x1="1958" x2="1958" y1="721.16" y2="757.4569"/><text fill="#FFFFFF" font-family="sans-serif" font-size="14" lengthAdjust="spacing" textLength="78" x="1865" y="744.1551">Cisco 1941</text></g><!--entity dell r631 98GB ncp-ng--><g id="elem_dell r631 98GB ncp-ng"><polygon fill="#0E0E0E" points="2003,721.16,2013,711.16,2199,711.16,2199,747.4569,2189,757.4569,2003,757.4569,2003,721.16" style="stroke:#E7E7E7;stroke-width:0.5;"/><line style="stroke:#E7E7E7;stroke-width:0.5;" x1="2189" x2="2199" y1="721.16" y2="711.16"/><line style="stroke:#E7E7E7;stroke-width:0.5;" x1="2003" x2="2189" y1="721.16" y2="721.16"/><line style="stroke:#E7E7E7;stroke-width:0.5;" x1="2189" x2="2189" y1="721.16" y2="757.4569"/><text fill="#FFFFFF" font-family="sans-serif" font-size="14" lengthAdjust="spacing" textLength="156" x="2018" y="744.1551">dell r631 98GB ncp-ng</text></g><!--entity hikvision--><g id="elem_hikvision"><polygon fill="#0E0E0E" points="3049.5,1106.16,3059.5,1096.16,3206.5,1096.16,3206.5,1132.4569,3196.5,1142.4569,3049.5,1142.4569,3049.5,1106.16" style="stroke:#E7E7E7;stroke-width:0.5;"/><line style="stroke:#E7E7E7;stroke-width:0.5;" x1="3196.5" x2="3206.5" y1="1106.16" y2="1096.16"/><line style="stroke:#E7E7E7;stroke-width:0.5;" x1="3049.5" x2="3196.5" y1="1106.16" y2="1106.16"/><line style="stroke:#E7E7E7;stroke-width:0.5;" x1="3196.5" x2="3196.5" y1="1106.16" y2="1142.4569"/><text fill="#FFFFFF" font-family="sans-serif" font-size="14" lengthAdjust="spacing" textLength="117" x="3064.5" y="1129.1551">Hikvision Camera</text></g><!--entity dahua--><g id="elem_dahua"><polygon fill="#0E0E0E" points="3242,1106.16,3252,1096.16,3384,1096.16,3384,1132.4569,3374,1142.4569,3242,1142.4569,3242,1106.16" style="stroke:#E7E7E7;stroke-width:0.5;"/><line style="stroke:#E7E7E7;stroke-width:0.5;" x1="3374" x2="3384" y1="1106.16" y2="1096.16"/><line style="stroke:#E7E7E7;stroke-width:0.5;" x1="3242" x2="3374" y1="1106.16" y2="1106.16"/><line style="stroke:#E7E7E7;stroke-width:0.5;" x1="3374" x2="3374" y1="1106.16" y2="1142.4569"/><text fill="#FFFFFF" font-family="sans-serif" font-size="14" lengthAdjust="spacing" textLength="102" x="3257" y="1129.1551">Dahua Camera</text></g><!--entity decanodea--><g id="elem_decanodea"><polygon fill="#0E0E0E" points="2306,984.16,2316,974.16,2408,974.16,2408,1010.4569,2398,1020.4569,2306,1020.4569,2306,984.16" style="stroke:#E7E7E7;stroke-width:0.5;"/><line style="stroke:#E7E7E7;stroke-width:0.5;" x1="2398" x2="2408" y1="984.16" y2="974.16"/><line style="stroke:#E7E7E7;stroke-width:0.5;" x1="2306" x2="2398" y1="984.16" y2="984.16"/><line style="stroke:#E7E7E7;stroke-width:0.5;" x1="2398" x2="2398" y1="984.16" y2="1020.4569"/><text fill="#FFFFFF" font-family="sans-serif" font-size="14" lengthAdjust="spacing" textLength="62" x="2321" y="1007.1551">dcn4gBa</text></g><!--entity decanodeb--><g id="elem_decanodeb"><polygon fill="#0E0E0E" points="2443.5,984.16,2453.5,974.16,2546.5,974.16,2546.5,1010.4569,2536.5,1020.4569,2443.5,1020.4569,2443.5,984.16" style="stroke:#E7E7E7;stroke-width:0.5;"/><line style="stroke:#E7E7E7;stroke-width:0.5;" x1="2536.5" x2="2546.5" y1="984.16" y2="974.16"/><line style="stroke:#E7E7E7;stroke-width:0.5;" x1="2443.5" x2="2536.5" y1="984.16" y2="984.16"/><line style="stroke:#E7E7E7;stroke-width:0.5;" x1="2536.5" x2="2536.5" y1="984.16" y2="1020.4569"/><text fill="#FFFFFF" font-family="sans-serif" font-size="14" lengthAdjust="spacing" textLength="63" x="2458.5" y="1007.1551">dcn4gBb</text></g><!--entity decanodec--><g id="elem_decanodec"><polygon fill="#0E0E0E" points="2582,984.16,2592,974.16,2684,974.16,2684,1010.4569,2674,1020.4569,2582,1020.4569,2582,984.16" style="stroke:#E7E7E7;stroke-width:0.5;"/><line style="stroke:#E7E7E7;stroke-width:0.5;" x1="2674" x2="2684" y1="984.16" y2="974.16"/><line style="stroke:#E7E7E7;stroke-width:0.5;" x1="2582" x2="2674" y1="984.16" y2="984.16"/><line style="stroke:#E7E7E7;stroke-width:0.5;" x1="2674" x2="2674" y1="984.16" y2="1020.4569"/><text fill="#FFFFFF" font-family="sans-serif" font-size="14" lengthAdjust="spacing" textLength="62" x="2597" y="1007.1551">dcn4gBc</text></g><!--entity decanoded--><g id="elem_decanoded"><polygon fill="#0E0E0E" points="2719.5,984.16,2729.5,974.16,2822.5,974.16,2822.5,1010.4569,2812.5,1020.4569,2719.5,1020.4569,2719.5,984.16" style="stroke:#E7E7E7;stroke-width:0.5;"/><line style="stroke:#E7E7E7;stroke-width:0.5;" x1="2812.5" x2="2822.5" y1="984.16" y2="974.16"/><line style="stroke:#E7E7E7;stroke-width:0.5;" x1="2719.5" x2="2812.5" y1="984.16" y2="984.16"/><line style="stroke:#E7E7E7;stroke-width:0.5;" x1="2812.5" x2="2812.5" y1="984.16" y2="1020.4569"/><text fill="#FFFFFF" font-family="sans-serif" font-size="14" lengthAdjust="spacing" textLength="63" x="2734.5" y="1007.1551">dcn4gBd</text></g><!--entity decanodee--><g id="elem_decanodee"><polygon fill="#0E0E0E" points="2857.5,984.16,2867.5,974.16,2960.5,974.16,2960.5,1010.4569,2950.5,1020.4569,2857.5,1020.4569,2857.5,984.16" style="stroke:#E7E7E7;stroke-width:0.5;"/><line style="stroke:#E7E7E7;stroke-width:0.5;" x1="2950.5" x2="2960.5" y1="984.16" y2="974.16"/><line style="stroke:#E7E7E7;stroke-width:0.5;" x1="2857.5" x2="2950.5" y1="984.16" y2="984.16"/><line style="stroke:#E7E7E7;stroke-width:0.5;" x1="2950.5" x2="2950.5" y1="984.16" y2="1020.4569"/><text fill="#FFFFFF" font-family="sans-serif" font-size="14" lengthAdjust="spacing" textLength="63" x="2872.5" y="1007.1551">dcn4gBe</text></g><!--entity decanodef--><g id="elem_decanodef"><polygon fill="#0E0E0E" points="2308,1106.16,2318,1096.16,2406,1096.16,2406,1132.4569,2396,1142.4569,2308,1142.4569,2308,1106.16" style="stroke:#E7E7E7;stroke-width:0.5;"/><line style="stroke:#E7E7E7;stroke-width:0.5;" x1="2396" x2="2406" y1="1106.16" y2="1096.16"/><line style="stroke:#E7E7E7;stroke-width:0.5;" x1="2308" x2="2396" y1="1106.16" y2="1106.16"/><line style="stroke:#E7E7E7;stroke-width:0.5;" x1="2396" x2="2396" y1="1106.16" y2="1142.4569"/><text fill="#FFFFFF" font-family="sans-serif" font-size="14" lengthAdjust="spacing" textLength="58" x="2323" y="1129.1551">dcn4gBf</text></g><!--entity decanodeg--><g id="elem_decanodeg"><polygon fill="#0E0E0E" points="2441.5,1106.16,2451.5,1096.16,2544.5,1096.16,2544.5,1132.4569,2534.5,1142.4569,2441.5,1142.4569,2441.5,1106.16" style="stroke:#E7E7E7;stroke-width:0.5;"/><line style="stroke:#E7E7E7;stroke-width:0.5;" x1="2534.5" x2="2544.5" y1="1106.16" y2="1096.16"/><line style="stroke:#E7E7E7;stroke-width:0.5;" x1="2441.5" x2="2534.5" y1="1106.16" y2="1106.16"/><line style="stroke:#E7E7E7;stroke-width:0.5;" x1="2534.5" x2="2534.5" y1="1106.16" y2="1142.4569"/><text fill="#FFFFFF" font-family="sans-serif" font-size="14" lengthAdjust="spacing" textLength="63" x="2456.5" y="1129.1551">dcn4gBg</text></g><!--entity decanodeh--><g id="elem_decanodeh"><polygon fill="#0E0E0E" points="2579.5,1106.16,2589.5,1096.16,2682.5,1096.16,2682.5,1132.4569,2672.5,1142.4569,2579.5,1142.4569,2579.5,1106.16" style="stroke:#E7E7E7;stroke-width:0.5;"/><line style="stroke:#E7E7E7;stroke-width:0.5;" x1="2672.5" x2="2682.5" y1="1106.16" y2="1096.16"/><line style="stroke:#E7E7E7;stroke-width:0.5;" x1="2579.5" x2="2672.5" y1="1106.16" y2="1106.16"/><line style="stroke:#E7E7E7;stroke-width:0.5;" x1="2672.5" x2="2672.5" y1="1106.16" y2="1142.4569"/><text fill="#FFFFFF" font-family="sans-serif" font-size="14" lengthAdjust="spacing" textLength="63" x="2594.5" y="1129.1551">dcn4gBh</text></g><!--entity decanodei--><g id="elem_decanodei"><polygon fill="#0E0E0E" points="2717.5,1106.16,2727.5,1096.16,2814.5,1096.16,2814.5,1132.4569,2804.5,1142.4569,2717.5,1142.4569,2717.5,1106.16" style="stroke:#E7E7E7;stroke-width:0.5;"/><line style="stroke:#E7E7E7;stroke-width:0.5;" x1="2804.5" x2="2814.5" y1="1106.16" y2="1096.16"/><line style="stroke:#E7E7E7;stroke-width:0.5;" x1="2717.5" x2="2804.5" y1="1106.16" y2="1106.16"/><line style="stroke:#E7E7E7;stroke-width:0.5;" x1="2804.5" x2="2804.5" y1="1106.16" y2="1142.4569"/><text fill="#FFFFFF" font-family="sans-serif" font-size="14" lengthAdjust="spacing" textLength="57" x="2732.5" y="1129.1551">dcn4gBi</text></g><!--entity decanodej--><g id="elem_decanodej"><polygon fill="#0E0E0E" points="2849.5,1106.16,2859.5,1096.16,2946.5,1096.16,2946.5,1132.4569,2936.5,1142.4569,2849.5,1142.4569,2849.5,1106.16" style="stroke:#E7E7E7;stroke-width:0.5;"/><line style="stroke:#E7E7E7;stroke-width:0.5;" x1="2936.5" x2="2946.5" y1="1106.16" y2="1096.16"/><line style="stroke:#E7E7E7;stroke-width:0.5;" x1="2849.5" x2="2936.5" y1="1106.16" y2="1106.16"/><line style="stroke:#E7E7E7;stroke-width:0.5;" x1="2936.5" x2="2936.5" y1="1106.16" y2="1142.4569"/><text fill="#FFFFFF" font-family="sans-serif" font-size="14" lengthAdjust="spacing" textLength="57" x="2864.5" y="1129.1551">dcn4gBj</text></g><!--entity decanodek--><g id="elem_decanodek"><polygon fill="#0E0E0E" points="2306,1231.16,2316,1221.16,2408,1221.16,2408,1257.4569,2398,1267.4569,2306,1267.4569,2306,1231.16" style="stroke:#E7E7E7;stroke-width:0.5;"/><line style="stroke:#E7E7E7;stroke-width:0.5;" x1="2398" x2="2408" y1="1231.16" y2="1221.16"/><line style="stroke:#E7E7E7;stroke-width:0.5;" x1="2306" x2="2398" y1="1231.16" y2="1231.16"/><line style="stroke:#E7E7E7;stroke-width:0.5;" x1="2398" x2="2398" y1="1231.16" y2="1267.4569"/><text fill="#FFFFFF" font-family="sans-serif" font-size="14" lengthAdjust="spacing" textLength="62" x="2321" y="1254.1551">dcn4gBk</text></g><!--entity decanodel--><g id="elem_decanodel"><polygon fill="#0E0E0E" points="2443.5,1231.16,2453.5,1221.16,2540.5,1221.16,2540.5,1257.4569,2530.5,1267.4569,2443.5,1267.4569,2443.5,1231.16" style="stroke:#E7E7E7;stroke-width:0.5;"/><line style="stroke:#E7E7E7;stroke-width:0.5;" x1="2530.5" x2="2540.5" y1="1231.16" y2="1221.16"/><line style="stroke:#E7E7E7;stroke-width:0.5;" x1="2443.5" x2="2530.5" y1="1231.16" y2="1231.16"/><line style="stroke:#E7E7E7;stroke-width:0.5;" x1="2530.5" x2="2530.5" y1="1231.16" y2="1267.4569"/><text fill="#FFFFFF" font-family="sans-serif" font-size="14" lengthAdjust="spacing" textLength="57" x="2458.5" y="1254.1551">dcn4gBl</text></g><!--entity decanodem--><g id="elem_decanodem"><polygon fill="#0E0E0E" points="2575.5,1231.16,2585.5,1221.16,2682.5,1221.16,2682.5,1257.4569,2672.5,1267.4569,2575.5,1267.4569,2575.5,1231.16" style="stroke:#E7E7E7;stroke-width:0.5;"/><line style="stroke:#E7E7E7;stroke-width:0.5;" x1="2672.5" x2="2682.5" y1="1231.16" y2="1221.16"/><line style="stroke:#E7E7E7;stroke-width:0.5;" x1="2575.5" x2="2672.5" y1="1231.16" y2="1231.16"/><line style="stroke:#E7E7E7;stroke-width:0.5;" x1="2672.5" x2="2672.5" y1="1231.16" y2="1267.4569"/><text fill="#FFFFFF" font-family="sans-serif" font-size="14" lengthAdjust="spacing" textLength="67" x="2590.5" y="1254.1551">dcn4gBm</text></g><!--entity decanoden--><g id="elem_decanoden"><polygon fill="#0E0E0E" points="2717.5,1231.16,2727.5,1221.16,2820.5,1221.16,2820.5,1257.4569,2810.5,1267.4569,2717.5,1267.4569,2717.5,1231.16" style="stroke:#E7E7E7;stroke-width:0.5;"/><line style="stroke:#E7E7E7;stroke-width:0.5;" x1="2810.5" x2="2820.5" y1="1231.16" y2="1221.16"/><line style="stroke:#E7E7E7;stroke-width:0.5;" x1="2717.5" x2="2810.5" y1="1231.16" y2="1231.16"/><line style="stroke:#E7E7E7;stroke-width:0.5;" x1="2810.5" x2="2810.5" y1="1231.16" y2="1267.4569"/><text fill="#FFFFFF" font-family="sans-serif" font-size="14" lengthAdjust="spacing" textLength="63" x="2732.5" y="1254.1551">dcn4gBn</text></g><!--entity decanodeo--><g id="elem_decanodeo"><polygon fill="#0E0E0E" points="2855.5,1231.16,2865.5,1221.16,2958.5,1221.16,2958.5,1257.4569,2948.5,1267.4569,2855.5,1267.4569,2855.5,1231.16" style="stroke:#E7E7E7;stroke-width:0.5;"/><line style="stroke:#E7E7E7;stroke-width:0.5;" x1="2948.5" x2="2958.5" y1="1231.16" y2="1221.16"/><line style="stroke:#E7E7E7;stroke-width:0.5;" x1="2855.5" x2="2948.5" y1="1231.16" y2="1231.16"/><line style="stroke:#E7E7E7;stroke-width:0.5;" x1="2948.5" x2="2948.5" y1="1231.16" y2="1267.4569"/><text fill="#FFFFFF" font-family="sans-serif" font-size="14" lengthAdjust="spacing" textLength="63" x="2870.5" y="1254.1551">dcn4gBo</text></g><!--entity decanodep--><g id="elem_decanodep"><polygon fill="#0E0E0E" points="2306.5,1338.16,2316.5,1328.16,2409.5,1328.16,2409.5,1364.4569,2399.5,1374.4569,2306.5,1374.4569,2306.5,1338.16" style="stroke:#E7E7E7;stroke-width:0.5;"/><line style="stroke:#E7E7E7;stroke-width:0.5;" x1="2399.5" x2="2409.5" y1="1338.16" y2="1328.16"/><line style="stroke:#E7E7E7;stroke-width:0.5;" x1="2306.5" x2="2399.5" y1="1338.16" y2="1338.16"/><line style="stroke:#E7E7E7;stroke-width:0.5;" x1="2399.5" x2="2399.5" y1="1338.16" y2="1374.4569"/><text fill="#FFFFFF" font-family="sans-serif" font-size="14" lengthAdjust="spacing" textLength="63" x="2321.5" y="1361.1551">dcn4gBp</text></g><!--entity decanodeq--><g id="elem_decanodeq"><polygon fill="#0E0E0E" points="2444.5,1338.16,2454.5,1328.16,2547.5,1328.16,2547.5,1364.4569,2537.5,1374.4569,2444.5,1374.4569,2444.5,1338.16" style="stroke:#E7E7E7;stroke-width:0.5;"/><line style="stroke:#E7E7E7;stroke-width:0.5;" x1="2537.5" x2="2547.5" y1="1338.16" y2="1328.16"/><line style="stroke:#E7E7E7;stroke-width:0.5;" x1="2444.5" x2="2537.5" y1="1338.16" y2="1338.16"/><line style="stroke:#E7E7E7;stroke-width:0.5;" x1="2537.5" x2="2537.5" y1="1338.16" y2="1374.4569"/><text fill="#FFFFFF" font-family="sans-serif" font-size="14" lengthAdjust="spacing" textLength="63" x="2459.5" y="1361.1551">dcn4gBq</text></g><!--entity decanoder--><g id="elem_decanoder"><polygon fill="#0E0E0E" points="2582.5,1338.16,2592.5,1328.16,2681.5,1328.16,2681.5,1364.4569,2671.5,1374.4569,2582.5,1374.4569,2582.5,1338.16" style="stroke:#E7E7E7;stroke-width:0.5;"/><line style="stroke:#E7E7E7;stroke-width:0.5;" x1="2671.5" x2="2681.5" y1="1338.16" y2="1328.16"/><line style="stroke:#E7E7E7;stroke-width:0.5;" x1="2582.5" x2="2671.5" y1="1338.16" y2="1338.16"/><line style="stroke:#E7E7E7;stroke-width:0.5;" x1="2671.5" x2="2671.5" y1="1338.16" y2="1374.4569"/><text fill="#FFFFFF" font-family="sans-serif" font-size="14" lengthAdjust="spacing" textLength="59" x="2597.5" y="1361.1551">dcn4gBr</text></g><!--entity decanodes--><g id="elem_decanodes"><polygon fill="#0E0E0E" points="2717,1338.16,2727,1328.16,2819,1328.16,2819,1364.4569,2809,1374.4569,2717,1374.4569,2717,1338.16" style="stroke:#E7E7E7;stroke-width:0.5;"/><line style="stroke:#E7E7E7;stroke-width:0.5;" x1="2809" x2="2819" y1="1338.16" y2="1328.16"/><line style="stroke:#E7E7E7;stroke-width:0.5;" x1="2717" x2="2809" y1="1338.16" y2="1338.16"/><line style="stroke:#E7E7E7;stroke-width:0.5;" x1="2809" x2="2809" y1="1338.16" y2="1374.4569"/><text fill="#FFFFFF" font-family="sans-serif" font-size="14" lengthAdjust="spacing" textLength="62" x="2732" y="1361.1551">dcn4gBs</text></g><!--entity decanodet--><g id="elem_decanodet"><polygon fill="#0E0E0E" points="2854.5,1338.16,2864.5,1328.16,2953.5,1328.16,2953.5,1364.4569,2943.5,1374.4569,2854.5,1374.4569,2854.5,1338.16" style="stroke:#E7E7E7;stroke-width:0.5;"/><line style="stroke:#E7E7E7;stroke-width:0.5;" x1="2943.5" x2="2953.5" y1="1338.16" y2="1328.16"/><line style="stroke:#E7E7E7;stroke-width:0.5;" x1="2854.5" x2="2943.5" y1="1338.16" y2="1338.16"/><line style="stroke:#E7E7E7;stroke-width:0.5;" x1="2943.5" x2="2943.5" y1="1338.16" y2="1374.4569"/><text fill="#FFFFFF" font-family="sans-serif" font-size="14" lengthAdjust="spacing" textLength="59" x="2869.5" y="1361.1551">dcn4gBt</text></g><!--entity decanodeu--><g id="elem_decanodeu"><polygon fill="#0E0E0E" points="2306.5,1445.16,2316.5,1435.16,2409.5,1435.16,2409.5,1471.4569,2399.5,1481.4569,2306.5,1481.4569,2306.5,1445.16" style="stroke:#E7E7E7;stroke-width:0.5;"/><line style="stroke:#E7E7E7;stroke-width:0.5;" x1="2399.5" x2="2409.5" y1="1445.16" y2="1435.16"/><line style="stroke:#E7E7E7;stroke-width:0.5;" x1="2306.5" x2="2399.5" y1="1445.16" y2="1445.16"/><line style="stroke:#E7E7E7;stroke-width:0.5;" x1="2399.5" x2="2399.5" y1="1445.16" y2="1481.4569"/><text fill="#FFFFFF" font-family="sans-serif" font-size="14" lengthAdjust="spacing" textLength="63" x="2321.5" y="1468.1551">dcn4gBu</text></g><!--entity decanodev--><g id="elem_decanodev"><polygon fill="#0E0E0E" points="2444.5,1445.16,2454.5,1435.16,2545.5,1435.16,2545.5,1471.4569,2535.5,1481.4569,2444.5,1481.4569,2444.5,1445.16" style="stroke:#E7E7E7;stroke-width:0.5;"/><line style="stroke:#E7E7E7;stroke-width:0.5;" x1="2535.5" x2="2545.5" y1="1445.16" y2="1435.16"/><line style="stroke:#E7E7E7;stroke-width:0.5;" x1="2444.5" x2="2535.5" y1="1445.16" y2="1445.16"/><line style="stroke:#E7E7E7;stroke-width:0.5;" x1="2535.5" x2="2535.5" y1="1445.16" y2="1481.4569"/><text fill="#FFFFFF" font-family="sans-serif" font-size="14" lengthAdjust="spacing" textLength="61" x="2459.5" y="1468.1551">dcn4gBv</text></g><!--entity decanodew--><g id="elem_decanodew"><polygon fill="#0E0E0E" points="2580.5,1445.16,2590.5,1435.16,2685.5,1435.16,2685.5,1471.4569,2675.5,1481.4569,2580.5,1481.4569,2580.5,1445.16" style="stroke:#E7E7E7;stroke-width:0.5;"/><line style="stroke:#E7E7E7;stroke-width:0.5;" x1="2675.5" x2="2685.5" y1="1445.16" y2="1435.16"/><line style="stroke:#E7E7E7;stroke-width:0.5;" x1="2580.5" x2="2675.5" y1="1445.16" y2="1445.16"/><line style="stroke:#E7E7E7;stroke-width:0.5;" x1="2675.5" x2="2675.5" y1="1445.16" y2="1481.4569"/><text fill="#FFFFFF" font-family="sans-serif" font-size="14" lengthAdjust="spacing" textLength="65" x="2595.5" y="1468.1551">dcn4gBw</text></g><!--entity decanodex--><g id="elem_decanodex"><polygon fill="#0E0E0E" points="2720.5,1445.16,2730.5,1435.16,2821.5,1435.16,2821.5,1471.4569,2811.5,1481.4569,2720.5,1481.4569,2720.5,1445.16" style="stroke:#E7E7E7;stroke-width:0.5;"/><line style="stroke:#E7E7E7;stroke-width:0.5;" x1="2811.5" x2="2821.5" y1="1445.16" y2="1435.16"/><line style="stroke:#E7E7E7;stroke-width:0.5;" x1="2720.5" x2="2811.5" y1="1445.16" y2="1445.16"/><line style="stroke:#E7E7E7;stroke-width:0.5;" x1="2811.5" x2="2811.5" y1="1445.16" y2="1481.4569"/><text fill="#FFFFFF" font-family="sans-serif" font-size="14" lengthAdjust="spacing" textLength="61" x="2735.5" y="1468.1551">dcn4gBx</text></g><!--entity devlaptop--><g id="elem_devlaptop"><ellipse cx="1266" cy="150.58" fill="#0E0E0E" rx="8" ry="8" style="stroke:#E7E7E7;stroke-width:0.5;"/><path d="M1266,158.58 L1266,185.58 M1253,166.58 L1279,166.58 M1266,185.58 L1253,200.58 M1266,185.58 L1279,200.58 " fill="none" style="stroke:#E7E7E7;stroke-width:0.5;"/><text fill="#FFFFFF" font-family="sans-serif" font-size="14" lengthAdjust="spacing" textLength="68" x="1232" y="215.0751">devlaptop</text></g><!--entity decanode-1--><g id="elem_decanode-1"><ellipse cx="3594" cy="967.66" fill="#0E0E0E" rx="8" ry="8" style="stroke:#E7E7E7;stroke-width:0.5;"/><path d="M3594,975.66 L3594,1002.66 M3581,983.66 L3607,983.66 M3594,1002.66 L3581,1017.66 M3594,1002.66 L3607,1017.66 " fill="none" style="stroke:#E7E7E7;stroke-width:0.5;"/><text fill="#FFFFFF" font-family="sans-serif" font-size="14" lengthAdjust="spacing" textLength="84" x="3552" y="1032.1551">decanode-1</text></g><!--entity decanode-24--><g id="elem_decanode-24"><ellipse cx="3718" cy="967.66" fill="#0E0E0E" rx="8" ry="8" style="stroke:#E7E7E7;stroke-width:0.5;"/><path d="M3718,975.66 L3718,1002.66 M3705,983.66 L3731,983.66 M3718,1002.66 L3705,1017.66 M3718,1002.66 L3731,1017.66 " fill="none" style="stroke:#E7E7E7;stroke-width:0.5;"/><text fill="#FFFFFF" font-family="sans-serif" font-size="14" lengthAdjust="spacing" textLength="93" x="3671.5" y="1032.1551">decanode-24</text></g><!--reverse link ubuntu to devlaptop--><!--link devlaptop to devnet--><!--link devlaptop to labnet--><!--link ubuntu to azure--><!--reverse link azure to n3sdb--><g id="link_azure_n3sdb"><path d="M418.89,181.09 C414.38,181.41 269.36,192.08 182,257.08 C159.12,274.1 141.95,302.54 131.96,322.32 " fill="none" id="azure-backto-n3sdb" style="stroke:#E7E7E7;stroke-width:1.0;"/><polygon fill="none" points="418.89,181.09,399.4422,175.4523,400.4331,189.4172,418.89,181.09" style="stroke:#E7E7E7;stroke-width:1.0;"/></g><!--reverse link azure to n3sgw--><g id="link_azure_n3sgw"><path d="M418.95,181.1 C416.76,182.12 346.53,214.82 303,257.08 C282.96,276.54 265.34,303.43 254.25,322.23 " fill="none" id="azure-backto-n3sgw" style="stroke:#E7E7E7;stroke-width:1.0;"/><polygon fill="none" points="418.95,181.1,398.7711,182.7764,404.6819,195.4674,418.95,181.1" style="stroke:#E7E7E7;stroke-width:1.0;"/></g><!--reverse link azure to n3sfw--><g id="link_azure_n3sfw"><path d="M418.96,181.2 C417.61,184.99 384.35,278.66 368.84,322.37 " fill="none" id="azure-backto-n3sfw" style="stroke:#E7E7E7;stroke-width:1.0;"/><polygon fill="none" points="418.96,181.2,405.9904,196.7496,419.1787,201.4473,418.96,181.2" style="stroke:#E7E7E7;stroke-width:1.0;"/></g><!--reverse link azure to n3sas--><g id="link_azure_n3sas"><path d="M419.04,181.2 C420.41,184.99 454.24,278.66 470.03,322.37 " fill="none" id="azure-backto-n3sas" style="stroke:#E7E7E7;stroke-width:1.0;"/><polygon fill="none" points="419.04,181.2,418.9159,201.4481,432.0821,196.6888,419.04,181.2" style="stroke:#E7E7E7;stroke-width:1.0;"/></g><!--reverse link azure to n3sad--><g id="link_azure_n3sad"><path d="M419.11,181.08 C423.85,180.91 575.94,176.39 636,257.08 C641.62,264.63 644.7525,273.6469 646.2727,282.9773 C646.4627,284.1437 646.6275,285.3149 646.7688,286.4887 C646.8395,287.0756 646.9043,287.6632 646.9635,288.2512 C646.9782,288.3982 646.9927,288.5452 647.0068,288.6922 " fill="none" id="azure-backto-n3sad" style="stroke:#E7E7E7;stroke-width:1.0;"/><polygon fill="none" points="419.11,181.08,438.3487,187.3945,437.8469,173.4035,419.11,181.08" style="stroke:#E7E7E7;stroke-width:1.0;"/></g><!--reverse link n3sad to opspc--><g id="link_n3sad_opspc"><path d="M639.98,346.58 C639.75,347.96 637.89,359.32 636,368.44 C629.2,401.34 620.19,439.2 614.5,462.56 " fill="none" id="n3sad-backto-opspc" style="stroke:#E7E7E7;stroke-width:1.0;"/><polygon fill="none" points="639.98,346.58,629.9517,364.1707,643.7612,366.4723,639.98,346.58" style="stroke:#E7E7E7;stroke-width:1.0;"/></g><!--reverse link n3sad to devpc--><g id="link_n3sad_devpc"><path d="M640.06,346.54 C642.02,349.65 688.96,424.3 713.03,462.59 " fill="none" id="n3sad-backto-devpc" style="stroke:#E7E7E7;stroke-width:1.0;"/><polygon fill="none" points="640.06,346.54,644.2683,366.3463,656.1123,358.8819,640.06,346.54" style="stroke:#E7E7E7;stroke-width:1.0;"/></g><!--reverse link n3sad to suppc--><g id="link_n3sad_suppc"><path d="M640.07,346.45 C642.81,347.01 731.21,365.13 786,407.44 C805.52,422.51 821.96,445.55 832.49,462.57 " fill="none" id="n3sad-backto-suppc" style="stroke:#E7E7E7;stroke-width:1.0;"/><polygon fill="none" points="640.07,346.45,657.2835,357.1128,660.0869,343.3963,640.07,346.45" style="stroke:#E7E7E7;stroke-width:1.0;"/></g><!--link devnet to devcloud--><!--reverse link devcloud to devubn--><g id="link_devcloud_devubn"><path d="M1265.98,486.84 C1264.42,489.92 1182.89,650.61 1152.37,710.75 " fill="none" id="devcloud-backto-devubn" style="stroke:#E7E7E7;stroke-width:1.0;"/><polygon fill="none" points="1265.98,486.84,1251.1503,500.627,1263.6397,506.9528,1265.98,486.84" style="stroke:#E7E7E7;stroke-width:1.0;"/></g><!--reverse link devcloud to devfbd--><g id="link_devcloud_devfbd"><path d="M1266,486.84 C1266,489.92 1266,650.61 1266,710.75 " fill="none" id="devcloud-backto-devfbd" style="stroke:#E7E7E7;stroke-width:1.0;"/><polygon fill="none" points="1266,486.84,1259,505.84,1273,505.84,1266,486.84" style="stroke:#E7E7E7;stroke-width:1.0;"/></g><!--reverse link devcloud to devobd--><g id="link_devcloud_devobd"><path d="M1266.02,486.84 C1267.58,489.92 1349.11,650.61 1379.63,710.75 " fill="none" id="devcloud-backto-devobd" style="stroke:#E7E7E7;stroke-width:1.0;"/><polygon fill="none" points="1266.02,486.84,1268.3603,506.9528,1280.8497,500.627,1266.02,486.84" style="stroke:#E7E7E7;stroke-width:1.0;"/></g><!--link labnet to n3slab--><!--reverse link n3slab to nighthawk cable modem--><g id="link_n3slab_nighthawk cable modem"><path d="M1908.96,486.84 C1906.48,489.92 1776.68,650.61 1728.1,710.75 " fill="none" id="n3slab-backto-nighthawk cable modem" style="stroke:#E7E7E7;stroke-width:1.0;"/><polygon fill="none" points="1908.96,486.84,1891.5917,497.2488,1902.4962,506.029,1908.96,486.84" style="stroke:#E7E7E7;stroke-width:1.0;"/></g><!--reverse link n3slab to Cisco 1941--><g id="link_n3slab_Cisco 1941"><path d="M1909,486.84 C1909,489.92 1909,650.61 1909,710.75 " fill="none" id="n3slab-backto-Cisco 1941" style="stroke:#E7E7E7;stroke-width:1.0;"/><polygon fill="none" points="1909,486.84,1902,505.84,1916,505.84,1909,486.84" style="stroke:#E7E7E7;stroke-width:1.0;"/></g><!--reverse link n3slab to palo_alto--><g id="link_n3slab_palo_alto"><path d="M1909.05,486.8 C1913.05,487.05 2169.57,503.16 2267,645.8 C2272.31,653.5725 2275.2825,662.7044 2276.7383,672.0813 C2276.9203,673.2534 2277.0785,674.4293 2277.2147,675.6069 C2277.2828,676.1957 2277.3454,676.7849 2277.4026,677.3742 " fill="none" id="n3slab-backto-palo_alto" style="stroke:#E7E7E7;stroke-width:1.0;"/><polygon fill="none" points="1909.05,486.8,1927.5764,494.9716,1928.4496,480.9988,1909.05,486.8" style="stroke:#E7E7E7;stroke-width:1.0;"/></g><!--reverse link palo_alto to avaya_switch--><g id="link_palo_alto_avaya_switch"><path d="M2271.08,735.16 C2277.51,735.14 2690.52,734.53 2977,870.16 C2996.4425,879.365 3015.4606,891.67 3033.0858,904.9919 C3041.8984,911.6528 3050.3627,918.568 3058.3577,925.477 C3062.3552,928.9314 3066.2354,932.3844 3069.9831,935.8033 C3070.9201,936.658 3071.8487,937.5105 3072.7688,938.3605 C3073.2289,938.7855 3073.6868,939.2098 3074.1426,939.6334 C3074.3705,939.8452 3074.5979,940.0568 3074.8247,940.2682 " fill="none" id="palo_alto-backto-avaya_switch" style="stroke:#E7E7E7;stroke-width:1.0;"/><polygon fill="none" points="2271.08,735.16,2290.1017,742.1009,2290.0581,728.1009,2271.08,735.16" style="stroke:#E7E7E7;stroke-width:1.0;"/></g><!--reverse link avaya_switch to hikvision--><g id="link_avaya_switch_hikvision"><path d="M3128,998.25 C3128,1000.87 3128,1061.99 3128,1095.94 " fill="none" id="avaya_switch-backto-hikvision" style="stroke:#E7E7E7;stroke-width:1.0;"/><polygon fill="none" points="3128,998.25,3121,1017.25,3135,1017.25,3128,998.25" style="stroke:#E7E7E7;stroke-width:1.0;"/></g><!--reverse link avaya_switch to dahua--><g id="link_avaya_switch_dahua"><path d="M3128.13,998.25 C3132.17,1000.87 3226.41,1061.99 3278.74,1095.94 " fill="none" id="avaya_switch-backto-dahua" style="stroke:#E7E7E7;stroke-width:1.0;"/><polygon fill="none" points="3128.13,998.25,3140.2625,1014.4612,3147.88,1002.715,3128.13,998.25" style="stroke:#E7E7E7;stroke-width:1.0;"/></g><!--reverse link palo_alto to decanode--><g id="link_palo_alto_decanode"><path d="M2271,735.21 C2271,737.2 2271,801.4375 2271,865.6713 C2271,873.7005 2271,881.7296 2271,889.6371 C2271,893.5909 2271,897.5143 2271,901.392 " fill="none" id="palo_alto-backto-decanode" style="stroke:#E7E7E7;stroke-width:1.0;"/><polygon fill="none" points="2271,735.21,2264,754.21,2278,754.21,2271,735.21" style="stroke:#E7E7E7;stroke-width:1.0;"/></g><!--link decanode to decanode-1--><!--link decanode to decanode-24--><!--reverse link n3slab to dell r631 98GB ncp-ng--><g id="link_n3slab_dell r631 98GB ncp-ng"><path d="M1909.03,486.84 C1911.43,489.92 2036.66,650.61 2083.54,710.75 " fill="none" id="n3slab-backto-dell r631 98GB ncp-ng" style="stroke:#E7E7E7;stroke-width:1.0;"/><polygon fill="none" points="1909.03,486.84,1915.1867,506.1298,1926.2299,497.5247,1909.03,486.84" style="stroke:#E7E7E7;stroke-width:1.0;"/></g><!--SRC=[XPHTRzCm58QlyQyuX8jTfHzRGO0GqbO6Gq83ZKbS83GviPjaJUnWE-tuw7_7iPFEnsLGgHz-dxVd-3Z9-vZnLIKuN5-TNdx-T7frVdbzi_puuUCLF7dhNhCPUJnulboylpx7b12zhaHB5MqWe_cwKB8JR2bhgS0eAhH5N9X_k0uQ1zxQTlMke7N03RypXvnCZopHfX8574q3UoE5p4ib6mwARxZIdEndE_tPAGv7fJ6jVZcTAhgT59KfkwpJNELI63l599VDb6vrJJFTVwUL1JfTIPMsDHMcQ-hfPhwOpAQiqcRgIlhFfMniyqbh7KU4qDpOBJE-gMbhP4k8a8n3OdlP6f3NicDWTVXC1RorXvW0rJ3GNmHW9Ml65IJKxTdvdSMlUmU0AobEDClGijYYvGelgSPBDXGR9DdgDWy5Em8MTDSEmexqxzquctKARjmk_Kyqo23TJs85Vmp1C5RhCe7MguoXjNJhe6rfhxMzMgwc_OxxsXb7wd-6_H9H5QKfwNODESrgRcyVnfiaC2mhdKkOlrZCGxMbjGHQ6mbFPpDNkrTkd8AECw4R-eF2udaBhUJ-2lRAZTvM9Y-j-P7tNLJhJQKhAM196wweivQZEBhUqBAZeOFrmj1mXnfBUmEs5IpUdG5LZJttJXkkUZQSVawTqUvW_0lBnQ8ueuZJ66S8Pp7E4SvZp11cCSPxup5U8RmYCIyGBs9S8bp6k4AuYl4jmhSnNYEyZd6DS7smzGRn9iO2OH5ZYR2CSOjm6-Fl27-FiK9O7MnT8wvZR10sCUuGxcAyGNWJuot2snZV8No77fHTy3pRArA3UdOoXnVFxGCZyZOLHJBcp3x58VrQLioU_xSkVJsazTyeizJdtKFK1nKXG-8ZvYAU-A1_zJjDXuZ7WWrvBAnYmGPz933Y0zy9FkW3mGTz8FYW9qDmnyEvx2Rx41zBzF5z8FOPVY3sGKw6m4R5VKoJ8QsT_Q6SHfumgaEmZsPo7z8EX4bCK2mxV9- -XypdRbHllC_8FbptSoaxLpBAwJo1bt2y0F-y_Czzl41sDFC3D-uV]--></g></svg>